<svg width="49" height="48" viewBox="0 0 49 48" fill="none" xmlns="http://www.w3.org/2000/svg">
<path d="M24.1538 37.4746C26.7476 37.4747 28.8501 39.5771 28.8501 42.1709C28.85 44.7646 26.7475 46.8671 24.1538 46.8672C21.56 46.8672 19.4576 44.7647 19.4575 42.1709C19.4575 39.577 21.5599 37.4746 24.1538 37.4746Z" fill="black" stroke="black" stroke-width="0.579113"/>
<path d="M8.84326 30.1958C11.437 30.1959 13.5396 32.2983 13.5396 34.8921C13.5395 37.4858 11.437 39.5883 8.84326 39.5884C6.24945 39.5884 4.14706 37.4859 4.14697 34.8921C4.14697 32.2982 6.2494 30.1958 8.84326 30.1958Z" fill="black" stroke="black" stroke-width="0.579113"/>
<path d="M4.98633 13.6846C7.58012 13.6847 9.68262 15.7871 9.68262 18.3809C9.68253 20.9746 7.58006 23.0771 4.98633 23.0771C2.39252 23.0771 0.290128 20.9746 0.290039 18.3809C0.290039 15.787 2.39246 13.6846 4.98633 13.6846Z" fill="black" stroke="black" stroke-width="0.579113"/>
<path d="M15.4917 0.376953C18.0855 0.377042 20.188 2.47943 20.188 5.07324C20.1879 7.66698 18.0854 9.76944 15.4917 9.76953C12.8979 9.76953 10.7955 7.66703 10.7954 5.07324C10.7954 2.47938 12.8978 0.376953 15.4917 0.376953Z" fill="black" stroke="black" stroke-width="0.579113"/>
<path d="M32.4424 0.290039C35.0362 0.290128 37.1387 2.39252 37.1387 4.98633C37.1386 7.58006 35.0361 9.68253 32.4424 9.68262C29.8486 9.68262 27.7462 7.58012 27.7461 4.98633C27.7461 2.39246 29.8485 0.290039 32.4424 0.290039Z" fill="black" stroke="black" stroke-width="0.579113"/>
<path d="M43.0791 13.4937C45.6729 13.4937 47.7754 15.5961 47.7754 18.1899C47.7753 20.7837 45.6728 22.8861 43.0791 22.8862C40.4853 22.8862 38.3829 20.7837 38.3828 18.1899C38.3828 15.5961 40.4852 13.4937 43.0791 13.4937Z" fill="black" stroke="black" stroke-width="0.579113"/>
<path d="M39.3916 30.0391C41.9854 30.0392 44.0879 32.1415 44.0879 34.7354C44.0878 37.3291 41.9853 39.4316 39.3916 39.4316C36.7978 39.4316 34.6954 37.3291 34.6953 34.7354C34.6953 32.1415 36.7977 30.0391 39.3916 30.0391Z" fill="black" stroke="black" stroke-width="0.579113"/>
</svg>
