<svg width="49" height="49" viewBox="0 0 49 49" fill="none" xmlns="http://www.w3.org/2000/svg">
<path d="M24.2471 0.290039C37.4819 0.290039 48.2049 11.018 48.2051 24.2471C48.2051 37.4762 37.4762 48.2051 24.2471 48.2051C11.0181 48.2049 0.290039 37.4761 0.290039 24.2471C0.290252 11.0182 11.0125 0.290249 24.2471 0.290039ZM24.2471 2.02734C11.9956 2.02755 2.02756 11.9956 2.02734 24.2471C2.02734 36.4987 11.9955 46.4676 24.2471 46.4678C36.4989 46.4678 46.4678 36.4989 46.4678 24.2471C46.4676 11.9955 36.4987 2.02734 24.2471 2.02734Z" fill="black" stroke="black" stroke-width="0.579113"/>
<path d="M24.248 15.1211C33.3829 15.1212 40.793 22.5255 40.793 31.666C40.7929 40.8065 33.3886 48.2109 24.248 48.2109C15.1075 48.2109 7.7032 40.8066 7.70312 31.666C7.70312 22.5254 15.1131 15.1211 24.248 15.1211ZM24.248 16.8584C16.0848 16.8584 9.44043 23.5028 9.44043 31.666C9.44051 39.8292 16.0848 46.4736 24.248 46.4736C32.4112 46.4736 39.0556 39.8292 39.0557 31.666C39.0557 23.5028 32.4112 16.8585 24.248 16.8584Z" fill="black" stroke="black" stroke-width="0.579113"/>
<path d="M24.2471 29.9521C29.2934 29.9521 33.3797 34.0379 33.3799 39.0781C33.3799 44.1184 29.2878 48.2051 24.2471 48.2051C19.2067 48.2049 15.1211 44.1185 15.1211 39.0781C15.1213 34.0379 19.2068 29.9523 24.2471 29.9521ZM24.2471 31.6895C20.1726 31.6896 16.8586 35.0037 16.8584 39.0781C16.8584 43.1526 20.1666 46.4676 24.2471 46.4678C28.3274 46.4678 31.6426 43.153 31.6426 39.0781C31.6424 35.0033 28.3214 31.6895 24.2471 31.6895Z" fill="black" stroke="black" stroke-width="0.579113"/>
</svg>
