<svg width="49" height="49" viewBox="0 0 49 49" fill="none" xmlns="http://www.w3.org/2000/svg">
<path d="M24.2471 0.290039C37.4819 0.290039 48.2049 11.018 48.2051 24.2471C48.2051 37.4762 37.4762 48.2051 24.2471 48.2051C11.0181 48.2049 0.290039 37.4761 0.290039 24.2471C0.290252 11.0182 11.0125 0.29025 24.2471 0.290039ZM24.2471 2.02734C11.9956 2.02756 2.02756 11.9956 2.02734 24.2471C2.02734 36.4987 11.9955 46.4676 24.2471 46.4678C36.4989 46.4678 46.4678 36.4989 46.4678 24.2471C46.4676 11.9955 36.4987 2.02734 24.2471 2.02734Z" fill="black" stroke="black" stroke-width="0.579113"/>
<path d="M24.249 15.1211C29.2894 15.1211 33.3758 19.2067 33.376 24.2471C33.376 29.2876 29.2895 33.374 24.249 33.374C19.2087 33.3738 15.123 29.2875 15.123 24.2471C15.1232 19.2068 19.2088 15.1213 24.249 15.1211ZM24.249 16.8584C20.1746 16.8586 16.8605 20.1726 16.8604 24.2471C16.8604 28.3217 20.1745 31.6365 24.249 31.6367C28.3237 31.6367 31.6387 28.3218 31.6387 24.2471C31.6385 20.1725 28.3236 16.8584 24.249 16.8584Z" fill="black" stroke="black" stroke-width="0.579113"/>
</svg>
