<svg width="49" height="49" viewBox="0 0 49 49" fill="none" xmlns="http://www.w3.org/2000/svg">
<path d="M24.2471 0.290039C37.4819 0.290039 48.2049 11.018 48.2051 24.2471C48.2051 37.4762 37.4762 48.2051 24.2471 48.2051C11.0181 48.2049 0.290039 37.4761 0.290039 24.2471C0.290252 11.0182 11.0125 0.290249 24.2471 0.290039ZM24.2471 2.02734C11.9956 2.02755 2.02756 11.9956 2.02734 24.2471C2.02734 36.4987 11.9955 46.4676 24.2471 46.4678C36.4989 46.4678 46.4678 36.4989 46.4678 24.2471C46.4676 11.9955 36.4987 2.02734 24.2471 2.02734Z" fill="black" stroke="black" stroke-width="0.579113"/>
<path d="M24.2466 0.290039C28.5518 0.290039 32.486 2.92594 35.3569 7.2627C38.2263 11.5971 40.0102 17.6015 40.0103 24.2471C40.0103 30.8928 38.2264 36.8979 35.3569 41.2324C32.486 45.5692 28.5518 48.2051 24.2466 48.2051C19.9415 48.205 16.008 45.569 13.1372 41.2324C10.2678 36.8979 8.48389 30.8928 8.48389 24.2471C8.48396 17.6015 10.2678 11.5971 13.1372 7.2627C16.008 2.92608 19.9415 0.290146 24.2466 0.290039ZM24.2466 2.02734C20.6314 2.02745 17.2052 4.26088 14.5835 8.21973C11.7609 12.48 10.2154 18.173 10.2153 24.2471C10.2153 30.3213 11.7609 36.015 14.5835 40.2754C17.2052 44.2342 20.6314 46.4677 24.2466 46.4678C27.8619 46.4678 31.2889 44.2344 33.9106 40.2754C36.7333 36.015 38.2788 30.3213 38.2788 24.2471C38.2787 18.173 36.7332 12.48 33.9106 8.21973C31.2889 4.26065 27.862 2.02734 24.2466 2.02734Z" fill="black" stroke="black" stroke-width="0.579113"/>
<path d="M24.2471 0.290039C25.1555 0.290153 26.0747 0.881417 26.957 2.07812C27.8351 3.26916 28.6379 5.01124 29.3174 7.18945C30.6753 11.5427 31.5205 17.5737 31.5205 24.2471C31.5205 30.9206 30.6754 36.9523 29.3174 41.3057C28.6379 43.484 27.8351 45.226 26.957 46.417C26.0747 47.6137 25.1555 48.205 24.2471 48.2051C23.3385 48.2051 22.4185 47.6138 21.5361 46.417C20.6581 45.226 19.8552 43.4838 19.1758 41.3057C17.8178 36.9523 16.9736 30.9206 16.9736 24.2471C16.9737 17.5738 17.8179 11.5427 19.1758 7.18945C19.8552 5.01137 20.6582 3.26916 21.5361 2.07812C22.4185 0.881302 23.3385 0.290039 24.2471 0.290039ZM24.2471 2.02734C24.1438 2.02734 24.0421 2.07077 23.9678 2.11035C23.8813 2.15642 23.7822 2.22406 23.6738 2.31348C23.4567 2.49274 23.1878 2.77265 22.8877 3.19043C22.2872 4.02649 21.5508 5.42707 20.8379 7.70898C19.4658 12.1058 18.7158 17.9854 18.7158 24.2529C18.7158 30.5202 19.4649 36.4001 20.8369 40.7969V40.7979C21.5469 43.0827 22.2843 44.4828 22.8857 45.3184C23.1864 45.736 23.456 46.0155 23.6738 46.1943C23.7825 46.2835 23.8812 46.3506 23.9678 46.3965C24.0424 46.436 24.1441 46.4795 24.2471 46.4795C24.3505 46.4794 24.452 46.4351 24.5264 46.3955C24.6127 46.3495 24.7112 46.2826 24.8193 46.1934C25.0365 46.0141 25.3053 45.7334 25.6055 45.3154C26.1308 44.5839 26.7609 43.421 27.3877 41.6133L27.6562 40.7979C29.0284 36.3953 29.7773 30.5208 29.7773 24.2529C29.7773 18.3769 29.1192 12.8416 27.9062 8.5498L27.6562 7.70898C26.9462 5.42409 26.2101 4.02407 25.6094 3.18848C25.3091 2.77082 25.0405 2.49045 24.8223 2.31152C24.7134 2.22227 24.6136 2.15527 24.5264 2.10938C24.4696 2.07951 24.3985 2.04812 24.3232 2.03418L24.2471 2.02734Z" fill="black" stroke="black" stroke-width="0.579113"/>
</svg>
