<svg width="54" height="48" viewBox="0 0 54 48" fill="none" xmlns="http://www.w3.org/2000/svg">
<path d="M15.9321 0.394531C18.7625 0.394709 21.0571 2.6891 21.0571 5.51953C21.0569 8.34981 18.7624 10.6444 15.9321 10.6445C13.1017 10.6445 10.8073 8.34992 10.8071 5.51953C10.8071 2.68899 13.1016 0.394531 15.9321 0.394531Z" fill="black" stroke="black" stroke-width="0.579113"/>
<path d="M37.1396 0.290039C39.97 0.290217 42.2646 2.58461 42.2646 5.41504C42.2645 8.24532 39.9699 10.5399 37.1396 10.54C34.3092 10.54 32.0148 8.24543 32.0146 5.41504C32.0146 2.5845 34.3091 0.290039 37.1396 0.290039Z" fill="black" stroke="black" stroke-width="0.579113"/>
<path d="M47.835 18.7466C50.6654 18.7468 52.96 21.0411 52.96 23.8716C52.9598 26.7019 50.6652 28.9964 47.835 28.9966C45.0045 28.9966 42.7101 26.702 42.71 23.8716C42.71 21.041 45.0044 18.7466 47.835 18.7466Z" fill="black" stroke="black" stroke-width="0.579113"/>
<path d="M37.3252 37.0288C40.1556 37.029 42.4502 39.3234 42.4502 42.1538C42.45 44.9841 40.1555 47.2786 37.3252 47.2788C34.4948 47.2788 32.2004 44.9842 32.2002 42.1538C32.2002 39.3233 34.4947 37.0288 37.3252 37.0288Z" fill="black" stroke="black" stroke-width="0.579113"/>
<path d="M16.1133 37.1333C18.9437 37.1335 21.2383 39.4279 21.2383 42.2583C21.2381 45.0886 18.9436 47.3831 16.1133 47.3833C13.2829 47.3833 10.9885 45.0887 10.9883 42.2583C10.9883 39.4278 13.2827 37.1333 16.1133 37.1333Z" fill="black" stroke="black" stroke-width="0.579113"/>
<path d="M26.9468 18.7466C29.7772 18.7468 32.0718 21.0411 32.0718 23.8716C32.0716 26.7019 29.7771 28.9964 26.9468 28.9966C24.1163 28.9966 21.822 26.702 21.8218 23.8716C21.8218 21.041 24.1162 18.7466 26.9468 18.7466Z" fill="black" stroke="black" stroke-width="0.579113"/>
<path d="M5.41504 18.7466C8.24543 18.7468 10.54 21.0411 10.54 23.8716C10.5399 26.7019 8.24532 28.9964 5.41504 28.9966C2.58461 28.9966 0.290219 26.702 0.290039 23.8716C0.290039 21.041 2.5845 18.7466 5.41504 18.7466Z" fill="black" stroke="black" stroke-width="0.579113"/>
<path d="M37.1389 5.41455L16.1113 42.2577" stroke="black" stroke-width="1.17574" stroke-miterlimit="10"/>
<path d="M15.9326 5.51855L37.3251 42.1532" stroke="black" stroke-width="1.17574" stroke-miterlimit="10"/>
<path d="M5.41553 23.8711H47.8356" stroke="black" stroke-width="1.17574" stroke-miterlimit="10"/>
</svg>
