<svg width="48" height="48" viewBox="0 0 48 48" fill="none" xmlns="http://www.w3.org/2000/svg">
<path d="M24 2.2928C35.968 2.2928 45.7072 12.032 45.7072 24C45.7072 35.968 35.9696 45.7072 24 45.7072C12.0304 45.7072 2.2928 35.968 2.2928 24C2.2928 12.032 12.032 2.2928 24 2.2928ZM24 4.78579e-10C10.7424 2.14212e-10 7.2032e-10 10.7472 4.6461e-10 24C2.08899e-10 37.2528 10.7488 48 24 48C37.2512 48 48 37.2528 48 24C48 10.7472 37.2592 7.42977e-10 24 4.78579e-10Z" fill="black"/>
<path d="M24.0019 16.9728C25.865 16.9749 27.6512 17.716 28.9687 19.0334C30.2861 20.3508 31.0272 22.137 31.0293 24.0002C31.0272 25.8633 30.2861 27.6495 28.9687 28.9669C27.6512 30.2844 25.865 31.0254 24.0019 31.0276C22.1388 31.0254 20.3525 30.2844 19.0351 28.9669C17.7177 27.6495 16.9766 25.8633 16.9745 24.0002C16.9766 22.137 17.7177 20.3508 19.0351 19.0334C20.3525 17.716 22.1388 16.9749 24.0019 16.9728ZM24.0019 14.6799C22.7779 14.6799 21.566 14.921 20.4352 15.3894C19.3044 15.8578 18.2769 16.5443 17.4115 17.4098C16.546 18.2752 15.8595 19.3027 15.3911 20.4335C14.9227 21.5643 14.6816 22.7762 14.6816 24.0002C14.6816 25.2241 14.9227 26.4361 15.3911 27.5669C15.8595 28.6977 16.546 29.7251 17.4115 30.5906C18.2769 31.4561 19.3044 32.1426 20.4352 32.611C21.566 33.0793 22.7779 33.3204 24.0019 33.3204C26.4738 33.3204 28.8444 32.3385 30.5923 30.5906C32.3402 28.8427 33.3221 26.4721 33.3221 24.0002C33.3221 21.5283 32.3402 19.1577 30.5923 17.4098C28.8444 15.6619 26.4738 14.6799 24.0019 14.6799Z" fill="black"/>
<circle cx="23.7213" cy="23.7206" r="7.90687" fill="black"/>
</svg>
