<svg width="422" height="152" viewBox="0 0 422 152" fill="none" xmlns="http://www.w3.org/2000/svg">
<path d="M17.2574 71.8575H13.1196L4.84381 9.4866C3.9355 3.12841 3.02719 2.22009 -0.000527883 1.61455V0.605311H29.4692V1.91732C27.2489 2.01824 26.2397 4.33949 25.6341 9.4866L25.0286 13.9273L30.1757 57.6272L36.332 9.4866C36.9376 4.33949 36.6348 2.01824 33.9099 1.91732V0.605311H43.1948V1.61455C40.1671 2.22009 39.2588 3.12841 38.3505 9.4866L29.9738 71.8575H25.836L21.5972 39.7637L17.2574 71.8575ZM11.8076 9.4866L17.4593 57.6272L20.5879 32.4972L17.5602 9.4866C17.0556 4.33949 16.0464 1.91732 13.927 1.91732C11.4039 1.91732 11.202 4.33949 11.8076 9.4866ZM67.1382 0.605311L68.4502 24.1206H66.4318C64.817 3.22933 64.716 2.62379 60.4773 2.62379H54.5227V32.5981H57.4495C60.3763 32.5981 59.9726 31.5889 59.468 22.0012H61.4865L63.2022 46.2229H61.0828C60.0736 35.6259 60.6791 34.6166 57.1468 34.6166H54.5227V69.2335H60.5782C64.6151 69.2335 65.0188 68.6279 66.5327 47.333H68.5512L67.3401 71.252H44.5313V70.2427C47.559 69.6372 48.1646 68.7289 48.1646 62.2697V9.58753C48.1646 3.12841 47.559 2.22009 44.5313 1.61455V0.605311H67.1382ZM86.8436 62.3707C86.1371 68.7289 86.6417 69.6372 91.2842 70.2427V71.252H80.1826V70.2427C83.2103 69.6372 84.1186 68.7289 84.8251 62.3707L91.6879 4.54134L91.3852 2.32102V1.31178C94.211 1.31178 95.2203 1.31178 96.835 -0.000229472H97.8443L105.212 62.3707C105.918 68.7289 106.826 69.6372 109.854 70.2427V71.252H94.0092V70.2427C98.6517 69.6372 99.1563 68.7289 98.4498 62.3707L97.2387 52.4801H88.0547L86.8436 62.3707ZM88.2565 50.4617H97.0369L92.6972 13.1199L88.2565 50.4617ZM111.113 71.252V70.2427C114.141 69.6372 114.747 68.7289 114.747 62.2697V9.58753C114.747 3.12841 114.141 2.22009 111.113 1.61455V0.605311H116.059C120.701 0.504389 122.215 -0.000229472 124.536 -0.000229472C130.592 -0.000229472 134.73 3.22933 134.73 14.9365C134.73 23.3132 132.408 29.1667 127.867 31.2861C133.115 33.0018 134.528 38.4517 134.73 50.9663C134.931 66.1048 134.931 68.0224 136.243 68.0224C137.152 68.0224 137.354 67.4168 137.757 61.967L139.776 62.2697C139.473 68.9307 138.06 71.8575 134.124 71.8575C129.078 71.8575 128.371 67.6187 128.17 53.994C127.968 39.0573 127.564 32.1945 123.628 32.1945H123.527C123.022 32.1945 122.215 32.1945 121.105 31.8917V62.2697C121.105 68.7289 121.71 69.6372 124.738 70.2427V71.252H111.113ZM121.105 29.7723C121.811 30.0751 122.316 30.176 123.022 30.176C126.757 30.176 128.27 24.2215 128.27 14.9365C128.27 5.14688 126.353 2.01824 123.224 2.01824C122.417 2.01824 121.71 2.11917 121.105 2.52286V29.7723ZM162.945 0.605311L164.257 24.1206H162.238C160.624 3.22933 160.523 2.62379 156.284 2.62379H150.329V32.5981H153.256C156.183 32.5981 155.779 31.5889 155.275 22.0012H157.293L159.009 46.2229H156.889C155.88 35.6259 156.486 34.6166 152.953 34.6166H150.329V69.2335H156.385C160.422 69.2335 160.825 68.6279 162.339 47.333H164.358L163.147 71.252H140.338V70.2427C143.366 69.6372 143.971 68.7289 143.971 62.2697V9.58753C143.971 3.12841 143.366 2.22009 140.338 1.61455V0.605311H162.945ZM193.247 71.8575H189.109L180.834 9.4866C179.925 3.12841 179.017 2.22009 175.989 1.61455V0.605311H205.459V1.91732C203.239 2.01824 202.229 4.33949 201.624 9.4866L201.018 13.9273L206.165 57.6272L212.322 9.4866C212.927 4.33949 212.625 2.01824 209.9 1.91732V0.605311H219.185V1.61455C216.157 2.22009 215.249 3.12841 214.34 9.4866L205.964 71.8575H201.826L197.587 39.7637L193.247 71.8575ZM187.797 9.4866L193.449 57.6272L196.578 32.4972L193.55 9.4866C193.045 4.33949 192.036 1.91732 189.917 1.91732C187.394 1.91732 187.192 4.33949 187.797 9.4866ZM224.154 9.58753C224.154 3.12841 223.549 2.22009 220.521 1.61455V0.605311H234.146V1.61455C231.118 2.22009 230.513 3.12841 230.513 9.58753V62.2697C230.513 68.7289 231.118 69.6372 234.146 70.2427V71.252H220.521V70.2427C223.549 69.6372 224.154 68.7289 224.154 62.2697V9.58753ZM260.859 0.605311L262.171 24.1206H260.153C258.74 4.74319 258.639 2.62379 254.703 2.62379H252.281V62.2697C252.281 68.7289 252.886 69.6372 255.914 70.2427V71.252H242.289V70.2427C245.317 69.6372 245.922 68.7289 245.922 62.2697V2.62379H243.5C239.564 2.62379 239.463 4.74319 238.05 24.1206H236.032L237.344 0.605311H260.859ZM280.135 71.252V70.2427C283.263 69.6372 283.768 68.7289 283.768 62.2697V36.6351H274.079V62.2697C274.079 68.7289 274.685 69.6372 277.712 70.2427V71.252H264.088V70.2427C267.116 69.6372 267.721 68.7289 267.721 62.2697V9.58753C267.721 3.12841 267.116 2.22009 264.088 1.61455V0.605311H277.712V1.61455C274.685 2.22009 274.079 3.12841 274.079 9.58753V34.6166H283.768V9.58753C283.768 3.12841 283.263 2.22009 280.135 1.61455V0.605311H293.86V1.61455C290.833 2.22009 290.227 3.12841 290.227 9.58753V62.2697C290.227 68.7289 290.833 69.6372 293.86 70.2427V71.252H280.135ZM300.099 9.58753C300.099 3.12841 299.494 2.22009 296.466 1.61455V0.605311H310.091V1.61455C307.063 2.22009 306.458 3.12841 306.458 9.58753V62.2697C306.458 68.7289 307.063 69.6372 310.091 70.2427V71.252H296.466V70.2427C299.494 69.6372 300.099 68.7289 300.099 62.2697V9.58753ZM334.274 9.58753C334.274 3.12841 333.668 2.22009 330.641 1.61455V0.605311H339.926V1.61455C336.898 2.22009 336.292 3.12841 336.292 9.58753V71.252H331.347L318.429 14.3309V62.2697C318.429 68.7289 319.034 69.6372 322.062 70.2427V71.252H312.777V70.2427C315.805 69.6372 316.41 68.7289 316.41 62.2697V5.95427C315.401 2.72471 314.392 2.11917 312.575 1.61455V0.605311H322.466L334.274 55.0032V9.58753ZM25.5332 80.6053L26.8452 104.121H24.8267C23.4138 84.7432 23.3129 82.6238 19.3768 82.6238H16.9547V142.27C16.9547 148.729 17.5602 149.637 20.5879 150.243V151.252H6.96321V150.243C9.99093 149.637 10.5965 148.729 10.5965 142.27V82.6238H8.1743C4.23827 82.6238 4.13735 84.7432 2.72441 104.121H0.705939L2.01795 80.6053H25.5332ZM41.3727 151.857C32.8951 151.857 29.3628 141.563 29.3628 115.929C29.3628 90.294 32.8951 79.9998 41.3727 79.9998C49.8503 79.9998 53.3826 90.1931 53.3826 115.929C53.3826 141.664 49.9512 151.857 41.3727 151.857ZM36.6293 115.929C36.6293 142.27 37.2348 149.839 41.3727 149.839C45.6115 149.839 46.217 142.27 46.217 115.929C46.217 89.5875 45.6115 82.0182 41.3727 82.0182C37.2348 82.0182 36.6293 89.6885 36.6293 115.929ZM58.0409 89.5875C58.0409 83.1284 57.4353 82.2201 54.4076 81.6145V80.6053H68.1333V81.6145C65.0046 82.2201 64.5 83.1284 64.5 89.5875V132.783C64.5 143.683 65.9129 148.224 70.9591 148.224C76.2072 148.224 77.6201 143.683 77.6201 132.985V89.5875C77.6201 83.1284 77.0146 82.2201 73.9868 81.6145V80.6053H83.2718V81.6145C80.2441 82.2201 79.6386 83.1284 79.6386 89.5875V134.398C79.6386 145.6 77.2164 151.857 68.9407 151.857C60.9677 151.857 58.0409 145.6 58.0409 133.59V89.5875ZM84.1652 113.406C84.1652 88.1746 89.8169 79.9998 98.1936 79.9998C101.12 79.9998 102.331 81.009 104.653 81.009L105.965 104.121H103.946C102.735 84.6423 101.221 82.0182 98.0926 82.0182C93.8538 82.0182 91.4317 90.4958 91.4317 113.002C91.4317 134.6 93.8538 147.72 98.5973 147.72C101.928 147.72 104.451 142.774 105.359 121.984L107.378 122.085C106.368 146.71 103.543 151.857 97.0834 151.857C88.5049 151.857 84.1652 138.233 84.1652 113.406ZM125.189 151.252V150.243C128.318 149.637 128.822 148.729 128.822 142.27V116.635H119.134V142.27C119.134 148.729 119.739 149.637 122.767 150.243V151.252H109.142V150.243C112.17 149.637 112.775 148.729 112.775 142.27V89.5875C112.775 83.1284 112.17 82.2201 109.142 81.6145V80.6053H122.767V81.6145C119.739 82.2201 119.134 83.1284 119.134 89.5875V114.617H128.822V89.5875C128.822 83.1284 128.318 82.2201 125.189 81.6145V80.6053H138.915V81.6145C135.887 82.2201 135.281 83.1284 135.281 89.5875V142.27C135.281 148.729 135.887 149.637 138.915 150.243V151.252H125.189ZM145.154 89.5875C145.154 83.1284 144.548 82.2201 141.521 81.6145V80.6053H155.145V81.6145C152.118 82.2201 151.512 83.1284 151.512 89.5875V142.27C151.512 148.729 152.118 149.637 155.145 150.243V151.252H141.521V150.243C144.548 149.637 145.154 148.729 145.154 142.27V89.5875ZM179.328 89.5875C179.328 83.1284 178.723 82.2201 175.695 81.6145V80.6053H184.98V81.6145C181.952 82.2201 181.347 83.1284 181.347 89.5875V151.252H176.402L163.483 94.3309V142.27C163.483 148.729 164.089 149.637 167.117 150.243V151.252H157.832V150.243C160.859 149.637 161.465 148.729 161.465 142.27V85.9543C160.456 82.7247 159.446 82.1192 157.63 81.6145V80.6053H167.52L179.328 135.003V89.5875ZM200.015 151.857C191.133 151.857 185.885 142.27 185.885 113.607C185.885 87.67 191.941 79.9998 199.51 79.9998C202.235 79.9998 203.951 81.009 206.676 81.009L207.887 104.121H205.969C204.152 84.6423 202.941 82.0182 199.813 82.0182C195.675 82.0182 193.152 89.9912 193.152 113.002C193.152 142.573 196.18 149.637 200.317 149.637C201.226 149.637 201.73 149.536 202.336 149.334V122.388C202.336 116.332 201.226 115.525 197.29 114.919V112.901L211.217 114.415V116.433C208.492 116.433 208.492 119.057 208.492 123.094V151.252C205.364 151.252 203.244 151.857 200.015 151.857ZM229.263 151.252H224.318V150.243C227.345 149.637 227.951 148.729 227.951 142.27V89.5875C227.951 83.1284 227.345 82.2201 224.318 81.6145V80.6053H229.263C232.19 80.5044 235.015 79.9998 237.337 79.9998C243.897 79.9998 250.356 86.4589 250.356 116.635C250.356 146.912 243.897 151.857 237.337 151.857C235.015 151.857 232.19 151.353 229.263 151.252ZM234.309 149.233C235.116 149.637 235.823 149.839 236.63 149.839C239.658 149.839 243.19 147.013 243.19 116.635C243.19 86.0552 239.658 82.0182 236.63 82.0182C235.823 82.0182 235.116 82.2201 234.309 82.6238V149.233ZM255.598 89.5875C255.598 83.1284 254.993 82.2201 251.965 81.6145V80.6053H265.59V81.6145C262.562 82.2201 261.957 83.1284 261.957 89.5875V142.27C261.957 148.729 262.562 149.637 265.59 150.243V151.252H251.965V150.243C254.993 149.637 255.598 148.729 255.598 142.27V89.5875ZM270.316 127.333C271.729 145.802 273.848 149.839 277.582 149.839C280.509 149.839 281.317 147.114 281.317 142.27C281.317 133.792 277.885 124.709 274.05 113.708C270.518 104.02 267.49 96.7531 267.49 89.9912C267.49 85.046 269.71 79.9998 276.876 79.9998C280.206 79.9998 282.023 81.009 285.454 81.009L286.867 104.121H284.849C283.436 85.7524 282.225 82.0182 278.289 82.0182C275.16 82.0182 274.151 85.046 274.151 88.4774C274.151 93.9273 276.876 101.093 280.61 111.286C284.042 120.571 287.978 131.673 287.978 140.655C287.978 148.426 284.95 151.857 279.096 151.857C275.766 151.857 273.344 150.848 269.71 150.848L268.297 127.333H270.316ZM314.826 80.6053L316.138 104.121H314.119C312.706 84.7432 312.605 82.6238 308.669 82.6238H306.247V142.27C306.247 148.729 306.853 149.637 309.88 150.243V151.252H296.256V150.243C299.283 149.637 299.889 148.729 299.889 142.27V82.6238H297.467C293.531 82.6238 293.43 84.7432 292.017 104.121H289.998L291.31 80.6053H314.826ZM320.447 142.371C319.74 148.729 320.245 149.637 324.887 150.243V151.252H313.786V150.243C316.813 149.637 317.722 148.729 318.428 142.371L325.291 84.5413L324.988 82.321V81.3118C327.814 81.3118 328.823 81.3118 330.438 79.9998H331.447L338.815 142.371C339.521 148.729 340.43 149.637 343.457 150.243V151.252H327.612V150.243C332.255 149.637 332.759 148.729 332.053 142.371L330.842 132.48H321.658L320.447 142.371ZM321.86 130.462H330.64L326.3 93.1199L321.86 130.462ZM366.112 89.5875C366.112 83.1284 365.507 82.2201 362.479 81.6145V80.6053H371.764V81.6145C368.736 82.2201 368.131 83.1284 368.131 89.5875V151.252H363.185L350.267 94.3309V142.27C350.267 148.729 350.873 149.637 353.9 150.243V151.252H344.615V150.243C347.643 149.637 348.249 148.729 348.249 142.27V85.9543C347.24 82.7247 346.23 82.1192 344.414 81.6145V80.6053H354.304L366.112 135.003V89.5875ZM372.669 113.406C372.669 88.1746 378.321 79.9998 386.698 79.9998C389.624 79.9998 390.835 81.009 393.157 81.009L394.469 104.121H392.45C391.239 84.6423 389.725 82.0182 386.597 82.0182C382.358 82.0182 379.936 90.4958 379.936 113.002C379.936 134.6 382.358 147.72 387.101 147.72C390.432 147.72 392.955 142.774 393.863 121.984L395.882 122.085C394.872 146.71 392.047 151.857 385.587 151.857C377.009 151.857 372.669 138.233 372.669 113.406ZM420.253 80.6053L421.565 104.121H419.547C417.932 83.2293 417.831 82.6238 413.592 82.6238H407.638V112.598H410.564C413.491 112.598 413.088 111.589 412.583 102.001H414.601L416.317 126.223H414.198C413.188 115.626 413.794 114.617 410.262 114.617H407.638V149.233H413.693C417.73 149.233 418.134 148.628 419.648 127.333H421.666L420.455 151.252H397.646V150.243C400.674 149.637 401.279 148.729 401.279 142.27V89.5875C401.279 83.1284 400.674 82.2201 397.646 81.6145V80.6053H420.253Z" fill="black"/>
</svg>
