<svg width="61" height="29" viewBox="0 0 61 29" fill="none" xmlns="http://www.w3.org/2000/svg">
<path d="M54.9866 11.2896C56.4837 11.2896 57.9195 10.6949 58.9781 9.63627C60.0367 8.57767 60.6314 7.14189 60.6314 5.6448C60.6314 4.1477 60.0367 2.71193 58.9781 1.65332C57.9195 0.594718 56.4837 0 54.9866 0C53.4895 0 52.0537 0.594718 50.9951 1.65332C49.9365 2.71193 49.3418 4.1477 49.3418 5.6448C49.3418 7.14189 49.9365 8.57767 50.9951 9.63627C52.0537 10.6949 53.4895 11.2896 54.9866 11.2896Z" fill="#0C0B0B"/>
<path d="M0 28.3958C1.64816 28.3958 2.77334 27.6316 3.37554 24.8988L7.63591 4.80486C8.1985 2.07203 6.99321 1.3078 5.34415 1.3078V0.786621H18.2054C23.9519 0.786621 25.3993 4.36289 24.7161 7.61871C24.113 10.3524 21.5809 13.0052 16.6382 13.6083C22.8672 14.0907 24.636 17.6679 23.7917 21.5655C22.9068 25.6666 18.93 28.9206 12.5795 28.9206H0V28.3958ZM8.92312 28.2356H11.4957C15.3942 28.2356 18.2072 25.4613 19.0506 21.4026C19.8148 17.5446 18.1658 14.2492 13.7866 14.2492H10.1689L7.47749 26.9088C7.31726 27.5929 7.63771 28.2356 8.92492 28.2356H8.92312ZM14.1466 13.5263C17.2809 13.5263 19.4512 10.3911 20.0138 7.49809C20.5764 4.56362 19.9337 1.47073 16.4762 1.47073H12.9L10.3273 13.5263H14.1466Z" fill="#0C0B0B"/>
<path d="M25.1971 28.4367C27.127 28.4367 28.4538 27.794 28.4538 24.8604V4.843C28.4538 1.90944 27.127 1.22623 25.1971 1.22623V0.785156H36.691C42.1972 0.785156 44.1667 4.12019 44.1667 7.25358C44.1667 9.98642 42.3574 12.9614 38.4589 13.7256C44.0452 14.1667 46.3757 17.4234 46.3757 21.1599C46.3757 25.1781 43.5222 28.9164 37.4139 28.9164H25.1953V28.434L25.1971 28.4367ZM36.6523 13.5267C40.1494 13.5267 41.7156 10.1908 41.6769 7.29769C41.6355 4.36323 40.2295 1.47107 36.1708 1.47107H30.8257V13.5267H36.6523ZM32.8339 28.235H36.9728C41.7552 28.235 43.8454 25.1007 43.8058 21.2427C43.7653 17.2641 41.5554 14.2495 36.5317 14.2495H30.8248V26.9091C30.8248 27.5932 31.2659 28.235 32.8339 28.235Z" fill="#0C0B0B"/>
</svg>
