<svg width="587" height="83" viewBox="0 0 587 83" fill="none" xmlns="http://www.w3.org/2000/svg">
<path d="M7.84 9.22986L5.85999 61.2299C5.65999 67.5799 6.15999 68.4699 9.62999 69.0699V70.0599H0V69.0699C2.98 68.4699 3.67 67.5799 3.87 61.2299L5.84999 9.41986C6.04999 3.06986 5.54999 2.1799 2.57999 1.5799V0.589844H13.1L20.44 52.6899L27.29 0.589844H37.71V1.5799C34.73 2.1799 34.24 3.06986 34.53 9.41986L36.71 61.2299C37.01 67.5799 37.7 68.4699 40.68 69.0699V70.0599H26.79V69.0699C30.16 68.4699 30.66 67.5799 30.46 61.2299L28.18 9.22986L20.04 70.0699H16.47L7.84 9.22986Z" fill="black"/>
<path d="M44.46 69.0699C47.73 68.4699 48.33 67.5799 48.33 61.2299V9.41986C48.33 3.06986 47.73 2.1799 44.46 1.5799V0.589844H58.45V1.5799C55.17 2.1799 54.58 3.06986 54.58 9.41986V57.9499L64.5 0.589844H74.62V1.5799C71.34 2.1799 70.75 3.06986 70.75 9.41986V61.2299C70.75 67.5799 71.35 68.4699 74.62 69.0699V70.0599H60.63V69.0699C63.9 68.4699 64.5 67.5799 64.5 61.2299V12.1999L54.58 70.0599H44.46V69.0699Z" fill="black"/>
<path d="M107.49 69.0699C110.57 68.4699 111.06 67.5799 111.06 61.2299V36.0198H101.53V61.2299C101.53 67.5799 102.13 68.4699 105.1 69.0699V70.0599H91.7002V69.0699C94.6802 68.4699 95.2702 67.5799 95.2702 61.2299V9.41986C95.2702 3.06986 94.6702 2.1799 91.7002 1.5799V0.589844H105.1V1.5799C102.12 2.1799 101.53 3.06986 101.53 9.41986V34.0298H111.06V9.41986C111.06 3.06986 110.56 2.1799 107.49 1.5799V0.589844H120.99V1.5799C118.01 2.1799 117.42 3.06986 117.42 9.41986V61.2299C117.42 67.5799 118.02 68.4699 120.99 69.0699V70.0599H107.49V69.0699Z" fill="black"/>
<path d="M135.08 69.07V70.06H124.16V69.07C127.14 68.47 128.03 67.58 128.72 61.33L135.47 4.45996L135.17 2.27997V1.28998C137.95 1.28998 138.94 1.29 140.53 0H141.52L148.77 61.33C149.46 67.58 150.36 68.48 153.33 69.07V70.06H137.75V69.07C142.31 68.47 142.81 67.58 142.12 61.33L140.93 51.6H131.9L130.71 61.33C130.02 67.58 130.51 68.48 135.08 69.07ZM140.73 49.62L136.46 12.9L132.09 49.62H140.72H140.73Z" fill="black"/>
<path d="M169.22 1.58997V0.599976H174.08C178.45 0.499976 179.84 0 182.71 0C189.36 0 193.13 4.06999 193.13 16.18C193.13 25.91 190.15 30.27 186.38 32.06C191.34 34.14 194.62 39.7 194.62 51.61C194.62 66.6 189.56 70.66 183.01 70.66C180.13 70.66 178.64 70.16 174.08 70.06H169.22V69.07C172.2 68.47 172.79 67.58 172.79 61.23V9.41998C172.79 3.06998 172.19 2.18002 169.22 1.58002V1.58997ZM180.73 31.06C184.1 31.06 186.78 28.28 186.78 16.17C186.78 4.05998 184.4 1.97998 181.32 1.97998C180.33 1.97998 179.63 2.17998 179.04 2.47998V30.76C179.64 30.96 180.03 31.06 180.73 31.06ZM181.53 68.67C185.4 68.67 187.88 65.3 187.88 51.8C187.88 38.3 185.8 33.04 181.53 33.04C180.34 33.04 179.74 32.94 179.05 32.74V68.17C179.74 68.47 180.44 68.67 181.53 68.67Z" fill="black"/>
<path d="M198.1 1.5896V0.599609H211.5V1.5896C208.52 2.1896 207.93 3.07963 207.93 9.42963V61.2396C207.93 67.5896 208.53 68.4797 211.5 69.0797V70.0696H198.1V69.0797C201.08 68.4797 201.67 67.5896 201.67 61.2396V9.42963C201.67 3.07963 201.07 2.1896 198.1 1.5896Z" fill="black"/>
<path d="M215.37 82.8696H214.08L214.28 68.0797H216.56C222.02 68.0797 223.41 58.2496 223.61 44.9596L223.81 9.42963C223.81 3.07963 223.12 2.1896 219.34 1.5896V0.599609H246.04V1.5896C242.27 2.1896 241.57 3.07963 241.57 9.42963V66.0996C241.57 67.4896 242.07 68.0896 243.75 68.0896H247.22L247.42 82.8796H246.13C244.94 74.1496 243.85 70.0797 236.01 70.0797H225.49C217.65 70.0797 216.66 74.1496 215.37 82.8796V82.8696ZM235.22 68.0797V2.57965H225.89L225.59 45.3496C225.39 55.6696 224.9 64.4996 220.93 68.0797H235.22Z" fill="black"/>
<path d="M262.51 0C265.39 0 266.58 0.98999 268.86 0.98999L270.15 23.72H268.17C266.98 4.56997 265.49 1.98999 262.41 1.98999C258.24 1.98999 255.86 10.33 255.86 32.46C255.86 54.59 258.24 66.6 262.91 66.6C266.19 66.6 268.67 61.74 269.56 41.29L271.54 41.39C270.55 65.6 267.77 70.67 261.42 70.67C252.98 70.67 248.72 57.27 248.72 32.86C248.72 8.44999 254.28 0.0100098 262.51 0.0100098V0Z" fill="black"/>
<path d="M301.32 23.7196H299.34C297.95 4.66961 297.85 2.57965 293.98 2.57965H291.6V61.2296C291.6 67.5796 292.2 68.4696 295.17 69.0696V70.0596H281.77V69.0696C284.75 68.4696 285.34 67.5796 285.34 61.2296V2.57965H282.96C279.09 2.57965 278.99 4.65961 277.6 23.7196H275.62L276.91 0.599609H300.03L301.32 23.7196Z" fill="black"/>
<path d="M311.94 69.07V70.06H301.02V69.07C304 68.47 304.889 67.58 305.589 61.33L312.339 4.45996L312.039 2.27997V1.28998C314.819 1.28998 315.809 1.29 317.399 0H318.39L325.63 61.33C326.32 67.58 327.22 68.48 330.2 69.07V70.06H314.62V69.07C319.18 68.47 319.68 67.58 318.99 61.33L317.799 51.6H308.77L307.58 61.33C306.89 67.58 307.38 68.48 311.95 69.07H311.94ZM317.599 49.62L313.33 12.9L308.96 49.62H317.589H317.599Z" fill="black"/>
<path d="M349.16 69.0699C352.24 68.4699 352.73 67.5799 352.73 61.2299V36.0198H343.2V61.2299C343.2 67.5799 343.8 68.4699 346.77 69.0699V70.0599H333.37V69.0699C336.35 68.4699 336.94 67.5799 336.94 61.2299V9.41986C336.94 3.06986 336.34 2.1799 333.37 1.5799V0.589844H346.77V1.5799C343.79 2.1799 343.2 3.06986 343.2 9.41986V34.0298H352.73V9.41986C352.73 3.06986 352.23 2.1799 349.16 1.5799V0.589844H362.66V1.5799C359.68 2.1799 359.09 3.06986 359.09 9.41986V61.2299C359.09 67.5799 359.69 68.4699 362.66 69.0699V70.0599H349.16V69.0699Z" fill="black"/>
<path d="M367.22 1.5896V0.599609H380.62V1.5896C377.64 2.1896 377.05 3.07963 377.05 9.42963V61.2396C377.05 67.5896 377.65 68.4797 380.62 69.0797V70.0696H367.22V69.0797C370.2 68.4797 370.79 67.5896 370.79 61.2396V9.42963C370.79 3.07963 370.19 2.1896 367.22 1.5896Z" fill="black"/>
<path d="M397.3 82.8696H396.01L396.21 68.0797H398.49C403.95 68.0797 405.34 58.2496 405.54 44.9596L405.74 9.42963C405.74 3.07963 405.05 2.1896 401.27 1.5896V0.599609H427.97V1.5896C424.2 2.1896 423.5 3.07963 423.5 9.42963V66.0996C423.5 67.4896 424 68.0896 425.68 68.0896H429.15L429.35 82.8796H428.06C426.87 74.1496 425.78 70.0797 417.94 70.0797H407.42C399.58 70.0797 398.59 74.1496 397.3 82.8796V82.8696ZM417.14 68.0797V2.57965H407.81L407.51 45.3496C407.31 55.6696 406.82 64.4996 402.85 68.0797H417.14Z" fill="black"/>
<path d="M431.04 35.33C431.04 10.12 434.51 0 442.85 0C451.19 0 454.66 10.02 454.66 35.33C454.66 60.64 451.29 70.66 442.85 70.66C434.41 70.66 431.04 60.54 431.04 35.33ZM442.85 68.67C447.02 68.67 447.61 61.23 447.61 35.32C447.61 9.41001 447.01 1.96997 442.85 1.96997C438.69 1.96997 438.18 9.51001 438.18 35.32C438.18 61.13 438.78 68.67 442.85 68.67Z" fill="black"/>
<path d="M484.93 23.7196H482.94C481.55 4.66961 481.45 2.57965 477.58 2.57965H475.2V61.2296C475.2 67.5796 475.79 68.4696 478.77 69.0696V70.0596H465.37V69.0696C468.35 68.4696 468.94 67.5796 468.94 61.2296V2.57965H466.56C462.69 2.57965 462.59 4.65961 461.2 23.7196H459.22L460.51 0.599609H483.63L484.92 23.7196H484.93Z" fill="black"/>
<path d="M488.71 69.0699C491.98 68.4699 492.58 67.5799 492.58 61.2299V9.41986C492.58 3.06986 491.98 2.1799 488.71 1.5799V0.589844H502.7V1.5799C499.42 2.1799 498.83 3.06986 498.83 9.41986V57.9499L508.75 0.589844H518.87V1.5799C515.59 2.1799 515 3.06986 515 9.41986V61.2299C515 67.5799 515.6 68.4699 518.87 69.0699V70.0599H504.88V69.0699C508.16 68.4699 508.75 67.5799 508.75 61.2299V12.1999L498.83 70.0599H488.71V69.0699Z" fill="black"/>
<path d="M523.34 69.0699C526.32 68.4699 526.91 67.5799 526.91 61.2299V9.41986C526.91 3.06986 526.31 2.1799 523.34 1.5799V0.589844H536.74V1.5799C533.76 2.1799 533.17 3.06986 533.17 9.41986V29.9598C535.75 29.8598 537.24 26.4899 539.52 11.1999C540.81 2.56989 541.9 0.379883 545.77 0.379883C548.05 0.379883 549.05 1.0799 551.33 1.0799L552.22 15.3699H550.24C549.05 4.64987 547.96 2.16986 545.38 2.16986C543.3 2.16986 542.7 4.64989 541.61 11.1999C539.72 21.9199 538.73 27.5798 536.75 29.9598C540.82 30.2598 544.69 31.5499 545.68 38.0999L549.15 61.3199C550.14 67.5699 551.04 68.4699 554.11 69.0599V70.0499H540.02V69.0599C543 68.4599 543.3 67.5699 542.4 61.3199L539.42 39.2899C538.53 32.4399 535.45 32.1399 533.66 32.1399H533.16V61.2198C533.16 67.5698 533.76 68.4599 536.73 69.0599V70.0499H523.33V69.0599L523.34 69.0699Z" fill="black"/>
<path d="M560.36 69.3704L558.87 50.3204H560.86C562.55 68.3804 564.13 68.7803 565.62 68.7803C567.41 68.7803 568.3 66.3003 569.79 58.6603L570.98 52.4103H568.8L561.26 9.34033C560.17 3.09033 559.18 2.19034 555.8 1.60034V0.610352H571.28V1.60034C567.31 2.20034 567.01 3.09033 567.91 9.34033L572.87 41.8904L578.92 9.24036C580.11 3.09036 579.71 2.19034 575.25 1.60034V0.610352H586.17V1.60034C583.19 2.20034 582.2 3.09036 581.01 9.24036L571.58 58.7604C570.19 66.3004 569.1 70.7703 565.63 70.7703C563.25 70.7703 562.65 69.3804 560.37 69.3804L560.36 69.3704Z" fill="black"/>
</svg>
