<svg width="129" height="129" viewBox="0 0 129 129" fill="none" xmlns="http://www.w3.org/2000/svg">
<path d="M128.775 128.774L0.000488281 128.774L0.00049391 0L128.775 5.62891e-06L128.775 128.774Z" fill="black"/>
<path d="M64.384 112.924C37.5798 112.924 15.851 91.1951 15.851 64.391C15.851 37.5868 37.5798 15.8579 64.384 15.8579C91.1882 15.8579 112.917 37.5868 112.917 64.391C112.917 91.1951 91.1882 112.924 64.384 112.924Z" fill="#E4E2E2"/>
<path d="M81.2464 59.5711L66.8726 73.9449L66.8726 45.1973L61.8142 45.1973L61.8142 73.8447L47.5406 59.5711L43.9847 63.127L60.8126 79.9548L64.3685 83.5608L67.9744 79.9548L84.8023 63.127L81.2464 59.5711Z" fill="black"/>
</svg>
