<svg width="505" height="93" viewBox="0 0 505 93" fill="none" xmlns="http://www.w3.org/2000/svg">
<path d="M0.329102 10.6456V0.329102H10.6456" stroke="black" stroke-width="0.65822"/>
<path d="M10.6456 91.7036L0.329102 91.7036L0.329101 81.3871" stroke="black" stroke-width="0.65822"/>
<path d="M503.683 81.3871L503.683 91.7036L493.366 91.7036" stroke="black" stroke-width="0.65822"/>
<path d="M493.366 0.329101L503.683 0.329102L503.683 10.6456" stroke="black" stroke-width="0.65822"/>
<path d="M58.1416 12.3643C75.0223 12.3643 88.7069 26.049 88.707 42.9297C88.707 59.8105 75.0224 73.4951 58.1416 73.4951C41.2609 73.495 27.5762 59.8104 27.5762 42.9297C27.5763 26.0491 41.261 12.3644 58.1416 12.3643Z" fill="black" stroke="black" stroke-width="0.738829"/>
<path d="M454.272 12.3564C471.157 12.3564 484.837 26.0442 484.837 42.9219C484.837 59.7996 471.15 73.4873 454.272 73.4873C437.394 73.4872 423.707 59.7995 423.707 42.9219C423.707 26.0443 437.387 12.3565 454.272 12.3564ZM454.272 14.5732C438.641 14.5733 425.923 27.2913 425.923 42.9219C425.923 58.5526 438.641 71.2704 454.272 71.2705C469.903 71.2705 482.621 58.5526 482.621 42.9219C482.621 27.2912 469.903 14.5732 454.272 14.5732Z" fill="black" stroke="black" stroke-width="0.738829"/>
<path d="M454.271 12.3564C459.764 12.3565 464.783 15.7202 468.445 21.2529C472.106 26.7829 474.382 34.4433 474.382 42.9219C474.382 51.4003 472.106 59.0609 468.445 64.5908C464.783 70.1236 459.764 73.4872 454.271 73.4873C448.779 73.4873 443.76 70.1236 440.098 64.5908C436.437 59.0609 434.16 51.4004 434.16 42.9219C434.16 34.4433 436.437 26.7829 440.098 21.2529C443.76 15.7202 448.779 12.3564 454.271 12.3564ZM454.271 14.5732C449.659 14.5732 445.287 17.4236 441.942 22.4746C438.341 27.9099 436.369 35.1727 436.369 42.9219C436.369 50.6713 438.341 57.9348 441.942 63.3701C445.287 68.4211 449.659 71.2705 454.271 71.2705C458.884 71.2704 463.255 68.4208 466.6 63.3701C470.201 57.9348 472.173 50.6713 472.173 42.9219C472.173 35.1726 470.201 27.9099 466.6 22.4746C463.255 17.4237 458.884 14.5733 454.271 14.5732Z" fill="black" stroke="black" stroke-width="0.738829"/>
<path d="M454.271 12.3564C455.43 12.3566 456.603 13.1111 457.729 14.6377C458.849 16.1572 459.873 18.38 460.74 21.1592C462.473 26.7131 463.551 34.4078 463.551 42.9219C463.551 51.436 462.473 59.1316 460.74 64.6855C459.873 67.4645 458.849 69.6866 457.729 71.2061C456.603 72.7328 455.43 73.4872 454.271 73.4873C453.112 73.4873 451.939 72.733 450.813 71.2061C449.693 69.6866 448.669 67.4645 447.802 64.6855C446.069 59.1316 444.991 51.436 444.991 42.9219C444.991 34.4078 446.069 26.7131 447.802 21.1592C448.669 18.38 449.693 16.1572 450.813 14.6377C451.939 13.1109 453.112 12.3564 454.271 12.3564ZM454.271 14.5732C454.139 14.5732 454.01 14.6301 453.915 14.6807C453.805 14.7394 453.678 14.8244 453.54 14.9385C453.263 15.1671 452.921 15.5247 452.538 16.0576C451.772 17.1242 450.831 18.9103 449.922 21.8213V21.8223C448.171 27.4317 447.216 34.9334 447.216 42.9297C447.216 50.9255 448.17 58.4268 449.921 64.0361C450.827 66.9511 451.768 68.7377 452.535 69.8037C452.919 70.3365 453.262 70.6937 453.54 70.9219C453.679 71.0356 453.805 71.1212 453.915 71.1797C454.01 71.2301 454.14 71.2861 454.271 71.2861C454.403 71.286 454.533 71.2292 454.628 71.1787C454.738 71.12 454.864 71.0348 455.002 70.9209C455.279 70.6922 455.622 70.334 456.005 69.8008C456.723 68.8008 457.595 67.1689 458.45 64.5703L458.621 64.0371C460.372 58.4204 461.327 50.9261 461.327 42.9297C461.327 35.1832 460.43 27.901 458.782 22.3535L458.621 21.8223C457.715 18.9072 456.776 17.1207 456.01 16.0547C455.627 15.5219 455.283 15.1648 455.005 14.9365C454.866 14.8227 454.739 14.7372 454.628 14.6787C454.556 14.6407 454.465 14.6009 454.369 14.583L454.271 14.5732Z" fill="black" stroke="black" stroke-width="0.738829"/>
<path d="M213.838 12.3564C230.723 12.3564 244.404 26.0442 244.404 42.9219C244.404 59.7996 230.716 73.4873 213.838 73.4873C196.961 73.4872 183.273 59.7995 183.273 42.9219C183.273 26.0443 196.953 12.3565 213.838 12.3564ZM213.838 14.5732C198.208 14.5733 185.49 27.2913 185.49 42.9219C185.49 58.5526 198.208 71.2704 213.838 71.2705C229.469 71.2705 242.187 58.5526 242.187 42.9219C242.187 27.2912 229.469 14.5732 213.838 14.5732Z" fill="black" stroke="black" stroke-width="0.738829"/>
<path d="M213.839 31.2778C225.493 31.2778 234.947 40.7248 234.947 52.3862C234.947 64.0478 225.5 73.4946 213.839 73.4946C202.177 73.4945 192.73 64.0477 192.73 52.3862C192.731 40.7249 202.185 31.2779 213.839 31.2778ZM213.839 33.4946C203.424 33.4947 194.947 41.9718 194.947 52.3862C194.947 62.8008 203.424 71.2777 213.839 71.2778C224.254 71.2778 232.73 62.8009 232.73 52.3862C232.73 41.9717 224.253 33.4946 213.839 33.4946Z" fill="black" stroke="black" stroke-width="0.738829"/>
<path d="M213.838 50.1992C220.276 50.1994 225.49 55.4133 225.49 61.8438C225.49 68.2739 220.269 73.4871 213.838 73.4873C207.408 73.4873 202.194 68.2743 202.194 61.8438C202.194 55.4131 207.408 50.1992 213.838 50.1992ZM213.838 52.416C208.64 52.416 204.411 56.6452 204.411 61.8438C204.411 67.0419 208.632 71.2705 213.838 71.2705C219.044 71.2703 223.273 67.0422 223.273 61.8438C223.273 56.645 219.036 52.4162 213.838 52.416Z" fill="black" stroke="black" stroke-width="0.738829"/>
<path d="M291.96 12.3564C308.845 12.3564 322.526 26.0442 322.526 42.9219C322.526 59.7996 308.838 73.4873 291.96 73.4873C275.083 73.4872 261.395 59.7995 261.395 42.9219C261.395 26.0443 275.076 12.3565 291.96 12.3564ZM291.96 14.5732C276.33 14.5733 263.612 27.2913 263.612 42.9219C263.612 58.5526 276.33 71.2704 291.96 71.2705C307.591 71.2705 320.309 58.5526 320.309 42.9219C320.309 27.2912 307.591 14.5732 291.96 14.5732Z" fill="black" stroke="black" stroke-width="0.738829"/>
<path d="M291.963 31.2778C298.394 31.278 303.607 36.4918 303.607 42.9224C303.607 49.3528 298.394 54.5657 291.963 54.5659C285.533 54.5659 280.319 49.3529 280.319 42.9224C280.319 36.4917 285.533 31.2778 291.963 31.2778ZM291.963 33.4946C286.765 33.4946 282.536 37.7239 282.536 42.9224C282.536 48.1207 286.765 52.3491 291.963 52.3491C297.162 52.3489 301.39 48.1206 301.39 42.9224C301.39 37.724 297.162 33.4948 291.963 33.4946Z" fill="black" stroke="black" stroke-width="0.738829"/>
<path d="M136.145 58.9321C139.454 58.9321 142.137 61.6151 142.137 64.9243C142.137 68.2335 139.454 70.9165 136.145 70.9165C132.835 70.9165 130.152 68.2335 130.152 64.9243C130.152 61.6151 132.835 58.9321 136.145 58.9321Z" fill="black" stroke="black" stroke-width="0.738829"/>
<path d="M116.611 49.6455C119.921 49.6455 122.604 52.3285 122.604 55.6377C122.604 58.9469 119.921 61.6299 116.611 61.6299C113.302 61.6299 110.619 58.9469 110.619 55.6377C110.619 52.3285 113.302 49.6455 116.611 49.6455Z" fill="black" stroke="black" stroke-width="0.738829"/>
<path d="M111.691 28.5811C115 28.5811 117.683 31.264 117.683 34.5732C117.683 37.8825 115 40.5654 111.691 40.5654C108.382 40.5654 105.699 37.8825 105.699 34.5732C105.699 31.264 108.382 28.5811 111.691 28.5811Z" fill="black" stroke="black" stroke-width="0.738829"/>
<path d="M125.094 11.603C128.403 11.603 131.086 14.286 131.086 17.5952C131.086 20.9044 128.403 23.5874 125.094 23.5874C121.785 23.5874 119.102 20.9044 119.102 17.5952C119.102 14.286 121.785 11.603 125.094 11.603Z" fill="black" stroke="black" stroke-width="0.738829"/>
<path d="M146.719 11.4922C150.028 11.4922 152.711 14.1751 152.711 17.4844C152.711 20.7936 150.028 23.4766 146.719 23.4766C143.41 23.4766 140.727 20.7936 140.727 17.4844C140.727 14.1751 143.41 11.4922 146.719 11.4922Z" fill="black" stroke="black" stroke-width="0.738829"/>
<path d="M160.289 28.3374C163.598 28.3374 166.281 31.0204 166.281 34.3296C166.281 37.6388 163.598 40.3218 160.289 40.3218C156.98 40.3218 154.297 37.6388 154.297 34.3296C154.297 31.0204 156.98 28.3374 160.289 28.3374Z" fill="black" stroke="black" stroke-width="0.738829"/>
<path d="M155.585 49.4458C158.894 49.4458 161.577 52.1288 161.577 55.438C161.577 58.7472 158.894 61.4302 155.585 61.4302C152.276 61.4302 149.593 58.7472 149.593 55.438C149.593 52.1288 152.276 49.4458 155.585 49.4458Z" fill="black" stroke="black" stroke-width="0.738829"/>
<path d="M359.474 13.5464C363.085 13.5465 366.012 16.4743 366.012 20.0854C366.012 23.6965 363.085 26.6235 359.474 26.6235C355.863 26.6235 352.935 23.6966 352.935 20.0854C352.935 16.4743 355.863 13.5464 359.474 13.5464Z" fill="black" stroke="black" stroke-width="0.738829"/>
<path d="M386.531 13.4131C390.142 13.4132 393.069 16.341 393.069 19.9521C393.069 23.5632 390.142 26.4902 386.531 26.4902C382.92 26.4902 379.992 23.5633 379.992 19.9521C379.992 16.341 382.92 13.4131 386.531 13.4131Z" fill="black" stroke="black" stroke-width="0.738829"/>
<path d="M400.176 36.96C403.787 36.96 406.714 39.8879 406.714 43.499C406.714 47.1101 403.787 50.037 400.176 50.0371C396.565 50.0371 393.637 47.1101 393.637 43.499C393.637 39.8878 396.565 36.96 400.176 36.96Z" fill="black" stroke="black" stroke-width="0.738829"/>
<path d="M386.768 60.2847C390.379 60.2847 393.306 63.2126 393.306 66.8237C393.306 70.4348 390.379 73.3617 386.768 73.3618C383.156 73.3618 380.229 70.4348 380.229 66.8237C380.229 63.2125 383.156 60.2847 386.768 60.2847Z" fill="black" stroke="black" stroke-width="0.738829"/>
<path d="M359.705 60.4175C363.316 60.4176 366.243 63.3454 366.243 66.9565C366.243 70.5676 363.316 73.4945 359.705 73.4946C356.094 73.4946 353.166 70.5677 353.166 66.9565C353.166 63.3454 356.094 60.4175 359.705 60.4175Z" fill="black" stroke="black" stroke-width="0.738829"/>
<path d="M373.526 36.96C377.137 36.96 380.064 39.8879 380.064 43.499C380.064 47.1101 377.137 50.037 373.526 50.0371C369.915 50.0371 366.987 47.1101 366.987 43.499C366.987 39.8878 369.915 36.96 373.526 36.96Z" fill="black" stroke="black" stroke-width="0.738829"/>
<path d="M346.057 36.96C349.668 36.96 352.595 39.8879 352.595 43.499C352.595 47.1101 349.668 50.037 346.057 50.0371C342.446 50.0371 339.518 47.1101 339.518 43.499C339.518 39.8878 342.445 36.96 346.057 36.96Z" fill="black" stroke="black" stroke-width="0.738829"/>
<path d="M386.53 19.9521L359.703 66.9564" stroke="black" stroke-width="1.5" stroke-miterlimit="10"/>
<path d="M359.475 20.085L386.767 66.8233" stroke="black" stroke-width="1.5" stroke-miterlimit="10"/>
<path d="M346.058 43.4985H400.177" stroke="black" stroke-width="1.5" stroke-miterlimit="10"/>
</svg>
