<?xml version="1.0" encoding="UTF-8"?>
<svg xmlns="http://www.w3.org/2000/svg" xmlns:xlink="http://www.w3.org/1999/xlink" width="24px" height="24px" viewBox="0 0 24 23" version="1.1">
<g id="surface1">
<path style=" stroke:none;fill-rule:nonzero;fill:rgb(9.411765%,1.176471%,54.901963%);fill-opacity:1;" d="M 0.0585938 0 L 23.957031 0 L 23.957031 23 L 0.0585938 23 Z M 0.0585938 0 "/>
<path style=" stroke:none;fill-rule:nonzero;fill:rgb(100%,100%,100%);fill-opacity:1;" d="M 21.535156 10.339844 C 22.125 10.339844 22.691406 10.113281 23.109375 9.710938 C 23.527344 9.308594 23.761719 8.765625 23.761719 8.199219 C 23.761719 7.628906 23.527344 7.085938 23.109375 6.683594 C 22.691406 6.285156 22.125 6.058594 21.535156 6.058594 C 20.945312 6.058594 20.378906 6.285156 19.964844 6.683594 C 19.546875 7.085938 19.3125 7.628906 19.3125 8.199219 C 19.3125 8.765625 19.546875 9.308594 19.964844 9.710938 C 20.378906 10.113281 20.945312 10.339844 21.535156 10.339844 Z M 21.535156 10.339844 "/>
<path style=" stroke:none;fill-rule:nonzero;fill:rgb(100%,100%,100%);fill-opacity:1;" d="M 0 16.824219 C 0.648438 16.824219 1.09375 16.535156 1.328125 15.5 L 3.007812 7.878906 C 3.230469 6.84375 2.753906 6.554688 2.105469 6.554688 L 2.105469 6.355469 L 7.171875 6.355469 C 9.4375 6.355469 10.007812 7.710938 9.738281 8.945312 C 9.5 9.984375 8.503906 10.988281 6.554688 11.21875 C 9.007812 11.402344 9.707031 12.757812 9.375 14.234375 C 9.023438 15.789062 7.457031 17.023438 4.957031 17.023438 L 0 17.023438 Z M 3.515625 16.761719 L 4.527344 16.761719 C 6.066406 16.761719 7.171875 15.710938 7.503906 14.171875 C 7.804688 12.710938 7.15625 11.460938 5.429688 11.460938 L 4.007812 11.460938 L 2.945312 16.261719 C 2.882812 16.519531 3.007812 16.761719 3.515625 16.761719 Z M 5.574219 11.1875 C 6.808594 11.1875 7.664062 9.996094 7.886719 8.902344 C 8.105469 7.789062 7.851562 6.617188 6.492188 6.617188 L 5.082031 6.617188 L 4.070312 11.1875 Z M 5.574219 11.1875 "/>
<path style=" stroke:none;fill-rule:nonzero;fill:rgb(100%,100%,100%);fill-opacity:1;" d="M 9.800781 16.839844 C 10.558594 16.839844 11.082031 16.59375 11.082031 15.484375 L 11.082031 7.894531 C 11.082031 6.78125 10.558594 6.523438 9.800781 6.523438 L 9.800781 6.355469 L 14.328125 6.355469 C 16.496094 6.355469 17.273438 7.621094 17.273438 8.808594 C 17.273438 9.84375 16.5625 10.972656 15.023438 11.261719 C 17.226562 11.429688 18.144531 12.664062 18.144531 14.082031 C 18.144531 15.605469 17.019531 17.019531 14.613281 17.019531 L 9.800781 17.019531 Z M 14.3125 11.1875 C 15.691406 11.1875 16.308594 9.921875 16.292969 8.824219 C 16.277344 7.710938 15.722656 6.617188 14.125 6.617188 L 12.015625 6.617188 L 12.015625 11.1875 Z M 12.808594 16.761719 L 14.4375 16.761719 C 16.324219 16.761719 17.148438 15.574219 17.132812 14.113281 C 17.117188 12.601562 16.246094 11.460938 14.265625 11.460938 L 12.015625 11.460938 L 12.015625 16.261719 C 12.015625 16.519531 12.191406 16.761719 12.808594 16.761719 Z M 12.808594 16.761719 "/>
</g>
</svg>
