<svg width="256" height="33" viewBox="0 0 256 33" fill="none" xmlns="http://www.w3.org/2000/svg">
<path d="M0 31.5818C1.81734 31.5818 3.05973 30.7369 3.72717 27.7123L8.42884 5.47275C9.05003 2.4481 7.71858 1.60321 5.90123 1.60321V1.02371H20.0958C26.4396 1.02371 28.0355 4.98254 27.282 8.58374C26.618 11.6084 23.8227 14.5437 18.3643 15.2096C25.2403 15.7431 27.1929 19.7019 26.2612 24.0154C25.2863 28.551 20.8921 32.1552 13.8841 32.1552H0V31.5786V31.5818ZM9.8464 31.406H12.6847C16.9868 31.406 20.0926 28.3383 21.0243 23.8459C21.8671 19.5757 20.0495 15.928 15.2123 15.928H11.2211L8.24774 29.9385C8.06938 30.6939 8.42588 31.406 9.84367 31.406H9.84663H9.8464ZM15.6153 15.1264C19.0748 15.1264 21.4703 11.6578 22.0915 8.45435C22.7124 5.2076 22.0022 1.78226 18.1891 1.78226H14.2408L11.4025 15.1264H15.6153ZM28.4936 15.9713C30.7139 6.27436 38.8321 0.669031 46.372 0.536455C54.8009 0.314584 60.3452 7.83156 58.3034 17.1707C56.1294 26.8212 48.011 32.6055 40.1606 32.6486C31.9992 32.6919 26.3658 25.2642 28.4936 15.9681V15.9713ZM41.0029 31.7607C46.5474 31.406 51.8703 24.8234 53.2911 16.0144C54.6656 7.60946 52.0917 0.669031 45.4404 1.4244C40.0282 2.00413 34.7944 8.58693 33.463 17.2137C32.1775 25.1316 34.8837 32.1151 41.0029 31.7575V31.7607ZM78.8787 1.78203H72.1349C66.1478 1.78203 62.8206 5.78438 60.6005 10.4553L60.0684 10.366L63.7063 1.02667H85.3547L61.0001 31.3597H67.3872C75.1055 31.3597 78.522 27.2683 80.8712 22.6434L81.3141 22.776L77.5871 32.1616H54.4749L78.8787 1.78203ZM79.0047 31.5818C81.2678 31.5818 83.7526 30.0249 86.0128 26.0658L97.7225 5.25088C97.2797 3.56111 96.0806 2.9816 94.7952 2.89207V2.31257C97.4121 2.31257 99.4538 1.6465 101.539 0L101.982 0.221872L106.108 27.7093C106.551 30.734 107.926 31.5786 109.789 31.5786V32.1552H98.2547V31.5786C100.161 31.5786 101.539 30.734 101.093 27.7093L100.339 22.5509H89.0263L87.6057 25.1316C85.0779 29.7135 87.0736 31.4923 90.5331 31.4923V32.1584H78.7742L78.9985 31.5818H79.0047ZM100.253 21.7985L98.0362 6.41013L89.4753 21.7985H100.253ZM110.721 31.5818C112.849 31.5818 114.316 30.9158 114.316 27.666V5.519C114.316 2.27225 112.852 1.51688 110.721 1.51688V1.02667H123.409C129.485 1.02667 131.659 4.71739 131.659 8.1892C131.659 11.2138 129.663 14.5037 125.361 15.3485C131.527 15.8388 134.101 19.4399 134.101 23.5776C134.101 28.0269 130.952 32.1616 124.208 32.1616H110.724V31.5848L110.721 31.5818ZM123.366 15.1264C127.225 15.1264 128.956 11.4357 128.91 8.23225C128.867 4.98573 127.314 1.78203 122.834 1.78203H116.933V15.1264H123.366ZM119.15 31.406H123.719C128.999 31.406 131.305 27.9374 131.259 23.6671C131.216 19.2641 128.775 15.928 123.23 15.928H116.933V29.9385C116.933 30.6939 117.421 31.406 119.15 31.406ZM133.888 31.6281C136.016 31.6281 137.48 30.9158 137.48 27.6692V5.519C137.48 2.27225 136.016 1.51688 133.888 1.51688V1.02667H146.487C153.363 1.02667 156.069 5.7411 156.069 9.74321C156.069 13.7451 153.274 18.3269 146.665 18.3269L145.112 18.37C147.24 18.37 149.504 19.0361 151.057 21.6168L154.959 28.11C156.644 30.8666 158.197 31.6249 160.681 31.6249V32.1584H154.295L148.261 22.0607C146.887 19.7914 144.934 18.4133 141.964 18.37H140.1V27.666C140.1 30.9128 141.564 31.6249 143.695 31.6249V32.1584H133.891V31.6249L133.888 31.6281ZM146.309 17.5716C151.81 17.5283 153.363 13.3011 153.317 9.78626C153.274 6.2714 151.807 1.77907 145.909 1.77907H140.097V17.6146L146.309 17.5716ZM157.53 31.6281C159.882 31.6281 161.788 30.0711 163.031 26.6918L169.464 9.03386C171.06 4.58481 170.885 2.85198 167.336 2.85198V2.31849C169.243 2.31849 170.841 1.6957 172.259 0.407068L172.748 0.585886L182.551 27.851C183.615 30.8757 184.99 31.631 187.121 31.631V32.1645H176.786V31.631C179.092 31.631 180.734 30.8757 179.67 27.851L177.674 22.2026H165.74L164.098 26.6947C162.856 30.0741 164.319 31.631 167.247 31.631V32.1645H157.533V31.631L157.53 31.6281ZM177.401 21.4871L171.724 5.56524L165.958 21.4871H177.404H177.401ZM185.387 31.6281C188.003 31.6281 189.689 30.0278 189.689 26.3804V6.80786C189.689 3.16042 188.003 1.51392 185.387 1.51392V1.02371H190.756L210.762 27.5768V6.80786C210.762 3.16042 209.077 1.51392 206.414 1.51392V1.02371H215.996V1.51392C213.379 1.51392 211.694 3.16042 211.694 6.80786V32.1616H211.073L190.623 5.25088V26.3772C190.623 30.0249 192.487 31.6249 195.457 31.6249V32.1584H185.387V31.6249V31.6281ZM216.928 31.6281C219.055 31.6281 220.522 30.9158 220.522 27.6692V5.519C220.522 2.27225 219.059 1.51688 216.928 1.51688V1.02667H227.929C238.886 1.02667 244.519 8.23225 244.519 16.5941C244.519 25.8006 238.886 32.1616 227.663 32.1616H216.928V31.6281ZM227.929 31.3597C237.424 31.3597 241.638 25.1779 241.638 16.5941C241.638 8.76575 237.469 1.8285 228.066 1.8285H223.142V28.8251C223.142 31.1839 223.142 31.3595 227.934 31.3595H227.929V31.3597ZM250.399 1.02667C247.854 1.02667 245.786 3.09868 245.786 5.65157C245.786 8.20446 247.854 10.2765 250.399 10.2765C252.946 10.2765 255.012 8.20446 255.012 5.65157C255.012 3.09868 252.946 1.02667 250.399 1.02667Z" fill="#0C0B0B"/>
</svg>
