<svg width="500" height="64" viewBox="0 0 500 64" fill="none" xmlns="http://www.w3.org/2000/svg">
<path d="M0 61.9146C3.55681 61.9146 5.98835 60.2582 7.29463 54.3285L16.4965 10.7291C17.7123 4.79938 15.1064 3.14302 11.5496 3.14302V2.00692H39.3305C51.7463 2.00692 54.8698 9.76801 53.395 16.828C52.0954 22.7576 46.6246 28.5123 35.9417 29.8176C49.399 30.8635 53.2207 38.6246 51.3972 47.081C49.4891 55.9728 40.8891 63.0386 27.1732 63.0386H0V61.9083V61.9146ZM19.2709 61.5698H24.8259C33.2458 61.5698 39.3242 55.5557 41.1476 46.7487C42.7972 38.3772 39.24 31.2261 29.7728 31.2261H21.9615L16.1421 58.6929C15.793 60.1738 16.4907 61.5698 19.2655 61.5698H19.2713H19.2709ZM30.5615 29.6546C37.3323 29.6546 42.0206 22.8546 43.2364 16.5743C44.4517 10.2092 43.0616 3.49403 35.5989 3.49403H27.8714L22.3163 29.6546H30.5615ZM55.7663 31.311C60.1118 12.3006 76.0002 1.3116 90.7571 1.05169C107.254 0.616725 118.105 15.3534 114.109 33.6622C109.854 52.5815 93.9648 63.9215 78.6003 64.0059C62.6272 64.0907 51.6019 49.5291 55.7663 31.3047V31.311ZM80.249 62.2651C91.1004 61.5698 101.518 48.665 104.299 31.3954C106.989 14.918 101.951 1.3116 88.9337 2.79246C78.3413 3.929 68.0979 16.8342 65.4921 33.7466C62.9763 49.2692 68.2727 62.96 80.249 62.2589V62.2651ZM154.378 3.49359H141.179C129.461 3.49359 122.949 11.34 118.604 20.4971L117.563 20.322L124.683 2.01273H167.052L119.386 61.4791H131.887C146.993 61.4791 153.679 53.4581 158.277 44.3913L159.144 44.6512L151.85 63.0511H106.616L154.378 3.49359ZM154.624 61.9146C159.053 61.9146 163.917 58.8622 168.34 51.1007L191.258 10.2941C190.391 6.98136 188.044 5.84527 185.528 5.66976V4.53367C190.65 4.53367 194.646 3.22787 198.727 0L199.593 0.434968L207.67 54.3227C208.537 60.2524 211.227 61.9083 214.874 61.9083V63.0386H192.299V61.9083C196.03 61.9083 198.727 60.2524 197.854 54.3227L196.379 44.2099H174.238L171.458 49.2692C166.51 58.2517 170.416 61.739 177.187 61.739V63.0448H154.173L154.612 61.9146H154.624ZM196.211 42.7349L191.872 12.5667L175.117 42.7349H196.211ZM216.698 61.9146C220.862 61.9146 223.733 60.6088 223.733 54.2379V10.8197C223.733 4.45462 220.868 2.97377 216.698 2.97377V2.01273H241.529C253.422 2.01273 257.677 9.2482 257.677 16.0545C257.677 21.9842 253.771 28.4337 245.351 30.09C257.418 31.0511 262.455 38.111 262.455 46.2227C262.455 54.9452 256.292 63.0511 243.094 63.0511H216.703V61.9204L216.698 61.9146ZM241.445 29.6546C248.998 29.6546 252.387 22.4191 252.296 16.1389C252.212 9.77427 249.173 3.49359 240.404 3.49359H228.855V29.6546H241.445ZM233.194 61.5698H242.137C252.471 61.5698 256.984 54.7697 256.894 46.3982C256.81 37.7663 252.031 31.2261 241.18 31.2261H228.855V58.6929C228.855 60.1738 229.812 61.5698 233.194 61.5698ZM262.04 62.0052C266.204 62.0052 269.069 60.6088 269.069 54.2441V10.8197C269.069 4.45462 266.204 2.97377 262.04 2.97377V2.01273H286.697C300.154 2.01273 305.45 11.2551 305.45 19.1011C305.45 26.9466 299.98 35.929 287.046 35.929L284.007 36.0134C288.172 36.0134 292.601 37.3192 295.641 42.3785L303.278 55.1082C306.576 60.5123 309.615 61.999 314.478 61.999V63.0448H301.978L290.17 43.2489C287.48 38.8001 283.658 36.0983 277.844 36.0134H274.197V54.2379C274.197 60.603 277.062 61.999 281.232 61.999V63.0448H262.046V61.999L262.04 62.0052ZM286.348 34.4482C297.115 34.3633 300.154 26.0762 300.064 19.1855C299.98 12.2948 297.109 3.48778 285.566 3.48778H274.191V34.5326L286.348 34.4482ZM308.309 62.0052C312.913 62.0052 316.645 58.9528 319.076 52.3279L331.667 17.7104C334.79 8.98829 334.447 5.59116 327.502 5.59116V4.54528C331.233 4.54528 334.363 3.32433 337.137 0.798035L338.094 1.1486L357.281 54.6005C359.363 60.5302 362.053 62.011 366.224 62.011V63.0569H345.996V62.011C350.51 62.011 353.724 60.5302 351.642 54.6005L347.736 43.5271H324.378L321.164 52.3337C318.733 58.9587 321.598 62.011 327.327 62.011V63.0569H308.315V62.011L308.309 62.0052ZM347.2 42.1244L336.09 10.9104L324.805 42.1244H347.206H347.2ZM362.83 62.0052C367.951 62.0052 371.249 58.868 371.249 51.7174V13.3464C371.249 6.19583 367.951 2.96796 362.83 2.96796V2.00692H373.338L412.493 54.0628V13.3464C412.493 6.19583 409.195 2.96796 403.983 2.96796V2.00692H422.736V2.96796C417.615 2.96796 414.317 6.19583 414.317 13.3464V63.0511H413.101L373.079 10.2941V51.7111C373.079 58.8622 376.726 61.999 382.54 61.999V63.0448H362.83V61.999V62.0052ZM424.56 62.0052C428.725 62.0052 431.595 60.6088 431.595 54.2441V10.8197C431.595 4.45462 428.731 2.97377 424.56 2.97377V2.01273H446.092C467.536 2.01273 478.562 16.1389 478.562 32.5319C478.562 50.5808 467.536 63.0511 445.57 63.0511H424.56V62.0052ZM446.092 61.4791C464.674 61.4791 472.922 49.3599 472.922 32.5319C472.922 17.1848 464.763 3.58469 446.359 3.58469H436.723V56.5101C436.723 61.1344 436.723 61.4787 446.101 61.4787H446.092V61.4791ZM490.068 2.01273C485.088 2.01273 481.04 6.07481 481.04 11.0796C481.04 16.0844 485.088 20.1465 490.068 20.1465C495.053 20.1465 499.096 16.0844 499.096 11.0796C499.096 6.07481 495.053 2.01273 490.068 2.01273Z" fill="black"/>
</svg>
