<svg width="95" height="50" viewBox="0 0 95 50" fill="none" xmlns="http://www.w3.org/2000/svg">
<circle cx="2.98764" cy="46.6532" r="2.98764" transform="rotate(-90 2.98764 46.6532)" fill="#19038C"/>
<circle cx="2.98764" cy="24.4293" r="2.98764" transform="rotate(-90 2.98764 24.4293)" fill="#19038C"/>
<circle cx="2.98764" cy="2.98868" r="2.98764" transform="rotate(-90 2.98764 2.98868)" fill="#19038C"/>
<circle cx="25.4832" cy="46.6532" r="2.98764" transform="rotate(-90 25.4832 46.6532)" fill="#19038C"/>
<circle cx="25.4832" cy="24.4293" r="2.98764" transform="rotate(-90 25.4832 24.4293)" fill="#19038C"/>
<circle cx="25.4832" cy="2.98868" r="2.98764" transform="rotate(-90 25.4832 2.98868)" fill="#19038C"/>
<circle cx="47.9798" cy="46.6532" r="2.98764" transform="rotate(-90 47.9798 46.6532)" fill="#19038C"/>
<circle cx="47.9798" cy="24.4293" r="2.98764" transform="rotate(-90 47.9798 24.4293)" fill="#19038C"/>
<circle cx="47.9798" cy="2.98868" r="2.98764" transform="rotate(-90 47.9798 2.98868)" fill="#19038C"/>
<circle cx="69.6136" cy="46.6532" r="2.98764" transform="rotate(-90 69.6136 46.6532)" fill="#19038C"/>
<circle cx="69.6136" cy="24.4284" r="2.98764" transform="rotate(-90 69.6136 24.4284)" fill="#19038C"/>
<circle cx="91.2472" cy="2.98868" r="2.98764" transform="rotate(-90 91.2472 2.98868)" fill="#19038C"/>
<circle cx="91.2472" cy="24.4284" r="2.98764" transform="rotate(-90 91.2472 24.4284)" fill="#19038C"/>
<circle cx="69.6136" cy="2.9877" r="2.98764" transform="rotate(-90 69.6136 2.9877)" fill="#19038C"/>
</svg>
